<?xml version="1.0" standalone="no"?>
<!DOCTYPE svg PUBLIC "-//W3C//DTD SVG 20010904//EN"
 "http://www.w3.org/TR/2001/REC-SVG-20010904/DTD/svg10.dtd">
<svg version="1.0" xmlns="http://www.w3.org/2000/svg"
 width="1280.000000pt" height="748.000000pt" viewBox="0 0 1280.000000 748.000000"
 preserveAspectRatio="xMidYMid meet">
<g transform="translate(0.000000,748.000000) scale(0.100000,-0.100000)"
fill="#000000" stroke="none">
<path d="M4160 7425 c-22 -59 -38 -152 -45 -260 -7 -135 -19 -188 -62 -290
-29 -67 -32 -83 -22 -102 9 -18 8 -31 -5 -70 -10 -26 -21 -66 -25 -88 -4 -22
-15 -55 -24 -72 -10 -18 -13 -33 -7 -33 21 0 9 -31 -26 -70 -20 -22 -31 -40
-25 -40 19 0 12 -32 -11 -58 -21 -22 -22 -24 -5 -33 35 -20 12 -88 -45 -131
-47 -36 -108 -65 -151 -73 -21 -4 -40 -12 -43 -17 -3 -5 -17 -13 -30 -18 -14
-6 -24 -18 -24 -28 0 -10 -9 -27 -20 -37 -14 -13 -17 -22 -10 -30 6 -7 9 -17
8 -23 -2 -5 14 -26 35 -46 70 -69 46 -148 -84 -272 -35 -33 -86 -78 -112 -99
-40 -32 -46 -41 -34 -50 8 -6 16 -19 18 -30 3 -11 17 -22 37 -27 37 -10 40
-18 12 -43 -19 -17 -19 -18 23 -45 23 -15 53 -39 66 -53 l24 -27 -19 -35 c-14
-26 -15 -38 -7 -46 6 -6 9 -26 6 -43 -7 -43 7 -52 102 -65 134 -19 122 -38
-45 -66 -52 -9 -125 -25 -162 -35 -54 -16 -67 -24 -70 -43 -2 -17 -29 -35
-123 -82 -118 -59 -119 -60 -80 -63 65 -4 71 -9 46 -36 l-22 -23 23 -7 c37 -9
72 -7 158 10 45 9 83 14 87 11 10 -11 -29 -81 -72 -128 -41 -44 -81 -107 -73
-115 2 -2 22 -7 44 -12 38 -8 39 -9 39 -53 0 -24 4 -50 8 -57 13 -19 0 -59
-34 -108 -16 -23 -29 -45 -29 -47 0 -3 18 -12 41 -21 35 -14 40 -20 37 -44 -3
-23 -17 -35 -104 -81 l-102 -54 -5 -46 c-4 -36 -2 -49 11 -59 23 -19 92 -8
154 23 57 29 72 31 65 11 -7 -17 6 -22 78 -31 69 -9 85 -14 85 -28 0 -7 -24
-42 -53 -77 -30 -36 -57 -77 -61 -92 -7 -29 -81 -87 -189 -148 -32 -18 -55
-36 -50 -41 4 -4 32 -9 62 -11 30 -2 56 -8 58 -15 9 -26 -218 -126 -239 -105
-14 14 -1 32 23 32 10 0 19 5 19 10 0 6 -5 10 -11 10 -7 0 -34 16 -62 36 -73
53 -145 84 -195 84 -34 0 -53 8 -89 35 -25 19 -54 35 -63 35 -12 0 -23 15 -34
45 -18 54 -11 60 52 53 34 -5 162 26 162 38 0 6 -114 57 -165 74 -49 15 -105
51 -105 67 0 18 85 73 112 73 13 0 33 6 44 14 15 12 17 18 8 33 -11 18 -105
100 -159 139 -25 19 -27 24 -16 38 11 13 11 19 1 31 -20 24 3 42 68 56 72 14
77 18 55 35 -17 14 -17 15 1 27 10 7 32 21 49 32 17 11 32 26 35 34 6 19 -42
11 -213 -34 -153 -40 -285 -54 -304 -31 -6 7 -14 27 -17 44 -6 29 -4 31 37 43
24 7 47 17 50 22 4 6 21 7 38 4 23 -5 33 -3 37 8 4 11 21 15 58 15 73 0 95 8
89 31 -6 21 1 25 72 34 l50 7 -68 34 c-39 20 -102 41 -149 50 -107 20 -114 25
-121 76 -4 35 -14 50 -53 85 -26 23 -45 45 -41 49 12 13 119 -16 175 -46 30
-16 57 -29 58 -27 6 5 -45 223 -65 281 -31 87 -31 86 47 86 38 0 90 7 116 16
l47 16 -143 147 c-141 143 -144 146 -186 146 -59 0 -93 38 -117 131 -26 104
-31 114 -86 174 -54 60 -56 57 -29 -40 16 -57 7 -110 -25 -148 -13 -16 -36
-68 -49 -116 -39 -131 -54 -147 -241 -237 -173 -84 -172 -82 -45 -83 20 -1 35
-6 35 -13 0 -7 -31 -34 -69 -60 -81 -56 -92 -73 -45 -73 25 0 42 -10 76 -46
31 -32 42 -51 38 -64 -15 -48 -241 -172 -393 -217 -34 -10 -62 -21 -62 -25 0
-3 17 -10 38 -15 53 -13 47 -34 -17 -57 -72 -26 -48 -32 40 -11 38 10 73 15
76 11 3 -3 1 -17 -5 -31 -19 -42 -15 -47 31 -40 40 6 44 5 55 -20 7 -14 12
-30 12 -34 0 -9 -181 -121 -196 -121 -6 0 -37 -16 -70 -36 -58 -35 -60 -36
-139 -29 l-80 7 24 -25 c18 -20 22 -33 18 -57 -6 -29 -6 -30 33 -30 22 0 40
-3 40 -7 0 -4 -28 -36 -62 -70 -34 -34 -59 -66 -55 -69 8 -9 72 19 144 63 54
32 73 30 53 -7 -6 -12 -10 -30 -8 -41 3 -19 6 -18 46 12 37 27 49 31 85 26 94
-13 148 -29 145 -42 -2 -8 -43 -51 -93 -96 -81 -73 -145 -152 -145 -179 0 -5
17 -10 38 -10 63 0 142 -12 142 -22 0 -5 -22 -23 -49 -40 -40 -24 -53 -39 -65
-76 -9 -25 -16 -48 -16 -50 0 -3 46 -2 103 2 97 7 104 6 122 -14 19 -21 19
-22 -5 -41 -14 -10 -47 -28 -75 -38 l-50 -20 47 0 c26 -1 49 -5 53 -10 3 -6
-9 -26 -26 -45 -33 -39 -25 -46 22 -19 32 19 45 13 30 -14 -20 -38 -161 -163
-225 -200 -36 -20 -66 -40 -66 -43 0 -4 26 -14 59 -23 48 -14 60 -21 65 -42 9
-35 3 -41 -41 -50 -21 -4 -46 -11 -56 -17 -18 -9 -18 -10 0 -23 17 -13 17 -14
-1 -34 -19 -21 -111 -55 -181 -67 -22 -4 -46 -10 -54 -14 -19 -10 67 -29 189
-41 109 -11 124 -15 115 -29 -8 -13 -220 -120 -287 -145 -53 -19 -55 -24 -32
-60 8 -13 14 -38 12 -57 -3 -30 -9 -36 -66 -64 l-63 -31 72 -29 c40 -17 74
-35 77 -42 6 -18 -76 -50 -213 -84 -160 -39 -152 -36 -130 -52 18 -13 17 -15
-10 -40 -21 -19 -39 -26 -69 -26 -53 0 -126 -35 -205 -99 -82 -66 -112 -84
-191 -112 l-65 -24 45 -5 45 -5 -30 -19 c-41 -27 -75 -58 -75 -68 0 -5 21 -8
46 -6 54 3 70 -15 30 -33 -19 -9 -26 -20 -26 -42 0 -23 4 -28 16 -23 74 28 82
13 29 -57 -37 -48 -41 -62 -25 -87 8 -12 18 -6 58 35 46 47 112 95 133 95 5 0
12 -18 15 -40 4 -23 11 -39 18 -37 6 2 25 41 43 87 17 47 36 86 41 88 6 2 18
-11 27 -27 8 -17 22 -31 30 -31 8 0 36 32 62 70 45 69 74 89 108 76 9 -3 19
-15 23 -26 7 -19 10 -18 47 20 67 68 96 43 59 -50 -9 -23 -14 -43 -11 -47 4
-3 20 6 37 21 17 14 36 26 42 26 10 0 -45 -106 -66 -126 -6 -6 -53 -22 -104
-34 -69 -17 -114 -35 -175 -72 -116 -71 -169 -97 -216 -104 -37 -6 -68 -24
-42 -24 6 0 11 -6 11 -14 0 -18 -48 -47 -127 -76 -35 -12 -63 -26 -63 -31 0
-5 -17 -17 -38 -28 -21 -11 -44 -27 -51 -35 -12 -14 -9 -16 26 -16 55 0 60
-10 21 -42 -24 -20 -29 -28 -15 -28 27 0 20 -14 -19 -42 l-36 -26 30 -7 c22
-4 53 3 118 29 92 37 119 43 129 26 3 -5 17 -10 31 -10 45 0 27 -33 -48 -90
-76 -56 -76 -74 -3 -50 19 6 39 9 45 5 5 -3 10 -28 10 -55 0 -63 -11 -73 -154
-146 -84 -42 -124 -69 -166 -113 -30 -31 -66 -65 -80 -74 -25 -17 -25 -17 25
-11 28 3 72 13 99 22 48 17 48 17 67 -7 18 -21 21 -22 37 -9 9 9 44 19 77 23
33 4 89 13 124 21 78 18 93 9 61 -36 -12 -17 -19 -37 -16 -45 9 -23 92 -20
272 10 21 4 34 13 37 25 9 36 100 18 141 -29 11 -11 26 -21 35 -21 8 0 58 26
109 57 76 46 105 57 149 61 49 4 55 2 60 -17 7 -26 14 -26 47 0 31 24 52 20
67 -15 10 -20 17 -23 43 -19 28 4 33 1 53 -39 12 -24 24 -52 25 -62 5 -35 22
-27 61 29 43 61 63 68 78 27 20 -55 22 -58 26 -34 3 12 8 20 13 17 5 -3 11 -1
15 5 11 18 34 10 49 -17 l14 -28 8 30 c16 69 50 73 105 13 37 -41 39 -42 40
-18 3 73 4 75 24 72 11 -2 37 -12 57 -22 38 -18 38 -18 38 3 1 12 7 33 15 47
7 14 11 37 8 53 -7 34 13 36 51 6 l27 -21 35 27 35 27 -21 32 c-11 19 -20 38
-20 43 0 13 120 64 133 56 5 -3 7 -26 4 -52 -6 -56 -1 -71 22 -71 26 0 48 29
63 83 7 26 17 46 23 44 5 -2 21 -31 34 -65 13 -34 28 -62 32 -62 4 0 26 16 49
35 23 19 47 35 53 35 7 0 20 -14 29 -31 13 -22 24 -29 40 -27 16 2 26 -4 33
-20 24 -54 85 0 85 76 0 39 2 43 15 32 13 -10 19 -9 36 6 16 15 19 26 15 54
-19 116 -19 120 -3 120 8 0 36 -23 61 -51 l46 -51 34 16 c69 33 91 13 25 -23
-44 -25 -119 -92 -119 -107 0 -17 105 -13 181 7 l77 21 40 -21 c57 -29 69 -27
64 9 -4 31 5 37 36 21 40 -20 94 -41 106 -41 8 0 20 10 29 23 15 22 15 21 22
-19 11 -65 19 -72 55 -51 39 23 54 14 45 -29 -5 -29 -3 -34 12 -34 22 0 56 21
100 63 18 17 35 28 38 25 3 -3 -3 -32 -14 -64 -28 -84 -14 -84 103 6 91 70 96
68 96 -30 0 -74 2 -80 21 -80 11 0 52 31 95 71 49 46 79 68 85 62 6 -6 17 -53
26 -106 9 -54 20 -97 24 -97 4 0 28 23 53 52 25 29 48 49 51 46 4 -3 13 -32
21 -65 28 -112 45 -133 74 -97 33 38 47 36 80 -11 18 -26 37 -44 43 -42 7 2
21 30 33 62 12 33 26 61 31 62 6 2 24 -10 41 -27 17 -16 39 -30 51 -30 28 0
57 42 71 103 27 110 23 109 88 40 103 -111 143 -100 235 68 l18 33 67 -71 c68
-71 105 -94 124 -75 6 6 16 36 22 68 10 50 15 58 36 60 14 1 37 6 52 9 16 4
46 1 74 -9 82 -28 126 -15 136 39 5 28 75 32 153 9 73 -21 105 -47 105 -86 0
-43 23 -35 65 23 20 28 41 49 48 46 6 -2 16 -18 21 -35 8 -28 26 -45 26 -24 0
4 12 12 25 19 22 10 27 9 38 -8 16 -26 24 -24 31 7 6 23 11 26 39 20 18 -3 43
-19 57 -35 23 -26 27 -28 36 -14 9 14 18 15 62 6 54 -11 148 -1 165 16 12 12
-7 43 -60 102 -35 39 -27 54 13 24 25 -19 34 -18 63 6 24 20 24 20 7 56 -20
42 -17 47 53 73 58 23 59 22 63 -50 2 -37 7 -46 24 -48 20 -3 41 31 59 96 10
35 21 26 45 -38 12 -33 28 -60 34 -60 6 0 22 9 36 20 33 26 40 25 40 -4 0 -22
5 -25 46 -28 31 -2 51 -9 58 -20 17 -28 0 -32 -72 -18 -70 14 -178 17 -190 5
-4 -4 37 -48 91 -98 71 -67 99 -100 103 -122 8 -46 16 -51 171 -109 18 -7 36
-15 39 -19 4 -3 -8 -25 -25 -49 -35 -48 -39 -61 -13 -54 9 2 65 7 125 11 126
8 125 9 72 -88 -19 -35 -32 -67 -28 -70 13 -14 61 -6 86 13 14 11 35 36 48 56
16 26 24 33 33 24 6 -6 29 -65 51 -132 l41 -120 34 53 c19 30 39 54 45 54 5 0
24 -27 43 -60 46 -82 49 -84 44 -22 -7 84 31 136 43 60 13 -84 25 -147 30
-151 10 -11 38 26 111 144 42 68 78 124 80 124 2 0 24 -15 49 -34 63 -49 163
-59 228 -24 24 13 57 68 57 96 0 12 6 25 14 28 18 7 144 -69 174 -104 l22 -27
24 30 25 30 15 -36 c8 -19 18 -47 21 -62 9 -36 25 -34 25 3 0 53 33 38 87 -37
l48 -68 5 59 c3 33 10 61 16 63 7 2 24 -17 39 -43 29 -49 45 -47 45 7 0 35 8
40 39 25 14 -7 37 -17 50 -21 l24 -7 -21 36 c-28 48 -28 66 1 66 20 0 24 5 24
33 2 49 14 95 28 107 7 6 58 12 113 13 55 1 94 5 87 9 -7 4 -50 19 -96 34
-108 33 -116 41 -94 87 9 19 25 43 37 53 19 18 21 18 58 -4 22 -12 45 -22 52
-22 7 0 24 21 38 46 28 54 75 94 245 207 66 44 146 100 178 125 l58 44 -21 34
c-24 42 -26 70 -4 78 27 10 44 7 44 -10 0 -13 8 -15 50 -9 l50 7 0 -46 c0 -52
-16 -68 -135 -130 -43 -22 -95 -60 -130 -96 -57 -58 -58 -60 -32 -60 15 0 44
7 64 15 44 19 48 19 67 -1 14 -14 18 -14 38 0 12 9 36 16 53 16 16 0 59 7 94
15 73 18 93 10 67 -26 -9 -13 -16 -29 -16 -36 0 -18 65 -17 163 2 43 8 81 15
83 15 2 0 4 6 4 14 0 8 6 16 13 19 22 7 78 -11 101 -32 12 -12 29 -21 37 -21
8 0 46 21 84 47 56 37 81 48 122 51 43 4 54 1 59 -12 6 -15 9 -15 31 6 l25 23
22 -27 c15 -20 27 -26 42 -22 23 6 54 -28 68 -73 10 -33 21 -29 53 20 16 23
33 42 38 42 6 0 16 -13 23 -28 13 -26 14 -26 38 -10 23 15 26 15 42 0 15 -15
17 -14 29 14 10 25 17 29 35 24 13 -4 33 -18 45 -31 29 -32 33 -30 33 11 0 39
16 45 60 20 14 -8 28 -14 31 -15 8 0 20 56 20 93 0 31 14 34 47 11 22 -15 25
-15 45 2 12 11 24 20 25 21 2 1 -4 15 -14 32 -21 36 -16 44 45 72 34 15 42 15
51 4 7 -8 9 -27 5 -43 -4 -20 -1 -33 10 -42 22 -18 40 1 54 55 6 25 15 45 20
45 5 0 18 -22 30 -50 12 -27 26 -50 31 -50 5 0 26 14 46 32 l36 32 20 -27 c11
-15 28 -27 38 -27 9 0 24 -9 31 -21 14 -21 15 -21 38 -2 18 15 24 29 23 56 -1
30 2 37 17 37 28 0 44 26 36 57 -26 106 -16 115 53 51 l46 -42 10 32 c18 51
29 57 73 36 55 -27 54 -47 -9 -112 -44 -45 -49 -54 -28 -48 108 28 116 29 148
12 40 -21 42 -21 42 9 0 14 1 25 3 25 1 0 27 -9 57 -20 69 -25 69 -25 80 5 8
22 14 24 37 19 16 -4 36 -11 45 -15 23 -12 37 30 14 43 -25 14 -19 38 9 38 15
0 42 -15 66 -37 38 -34 42 -36 54 -20 7 9 24 17 37 17 17 0 27 7 31 20 3 13
10 18 21 14 14 -6 14 -2 1 37 -27 75 -9 82 72 27 42 -28 93 -38 93 -16 0 6
-12 27 -26 46 -28 36 -22 51 18 52 9 0 29 5 43 12 l25 11 -24 26 c-13 14 -27
43 -30 63 -6 30 -3 41 14 55 31 27 25 33 -34 33 -73 0 -87 17 -51 64 28 37 27
41 -20 48 -13 2 -22 15 -27 43 -12 56 -25 65 -48 35 -17 -21 -21 -23 -30 -10
-20 31 -10 62 35 108 25 24 45 46 45 48 0 4 -67 66 -114 106 -48 41 -26 54 24
14 78 -62 98 -36 30 38 -36 39 -50 66 -35 66 3 0 23 -9 45 -20 53 -27 72 -25
35 5 -16 13 -26 27 -23 30 3 4 39 -5 78 -19 40 -15 75 -25 77 -23 2 3 -51 33
-118 67 -66 35 -137 74 -157 88 -20 13 -69 37 -110 53 -102 39 -178 86 -206
129 -45 68 -76 139 -76 174 0 38 8 46 52 55 l29 6 -65 87 c-36 48 -66 93 -66
100 0 7 12 22 28 35 21 18 23 22 10 23 -31 0 -19 24 27 53 40 26 65 61 52 74
-9 9 -51 -19 -100 -66 -28 -27 -67 -52 -95 -62 -44 -15 -50 -15 -106 4 -48 16
-60 25 -72 53 -19 45 -18 54 6 54 16 0 20 7 20 30 0 27 2 30 19 20 24 -12 161
-13 161 -1 0 5 -12 18 -27 29 -32 23 -26 52 12 52 32 0 32 13 0 34 -30 20 -32
36 -6 43 17 4 11 11 -32 40 -73 50 -131 74 -171 71 -24 -1 -44 6 -69 25 -20
15 -42 27 -50 27 -21 0 -35 20 -39 55 -3 29 -2 30 42 31 48 0 130 22 130 35 0
4 -41 22 -91 40 -50 18 -101 41 -113 51 l-21 18 35 30 c19 16 49 33 67 36 63
12 56 27 -48 110 -61 49 -66 55 -65 90 1 37 3 39 51 54 39 11 50 19 47 32 -2
12 9 25 32 39 20 11 36 27 36 34 0 15 -11 13 -175 -34 -60 -18 -137 -34 -171
-38 -56 -5 -62 -4 -78 18 -9 13 -16 29 -16 37 0 16 88 55 112 49 10 -3 18 -1
18 3 0 10 20 16 83 25 38 5 47 10 47 26 0 14 7 19 28 19 15 0 33 4 40 9 18 11
-89 57 -154 67 -76 11 -90 19 -98 56 -3 18 -23 49 -43 70 -29 30 -33 39 -21
43 21 8 94 -11 137 -36 18 -11 35 -18 37 -16 2 2 -14 61 -36 133 -22 71 -40
137 -40 147 0 14 9 17 54 17 52 0 126 22 126 38 0 4 -54 59 -120 121 -107 100
-123 112 -148 107 -49 -11 -90 47 -116 165 -5 24 -84 124 -92 116 -2 -2 3 -28
12 -57 18 -61 14 -98 -16 -138 -12 -16 -30 -61 -40 -102 -24 -95 -51 -121
-190 -190 -60 -30 -110 -58 -110 -62 0 -4 26 -8 58 -10 l57 -3 -62 -48 c-35
-27 -63 -52 -63 -58 0 -5 12 -9 27 -9 34 0 96 -64 88 -91 -7 -21 -100 -94
-135 -105 -14 -4 -68 -8 -120 -9 -52 -1 -102 -5 -111 -9 -20 -9 -49 18 -49 45
0 12 7 19 20 19 32 0 25 36 -10 50 -43 18 -50 37 -50 139 0 80 2 91 21 105 24
17 22 31 -19 119 -25 54 -28 58 -54 53 -35 -7 -35 4 -1 45 16 18 23 34 17 36
-6 2 -20 10 -30 18 -19 14 -18 14 2 29 12 9 24 25 27 36 5 19 2 21 -30 18 -33
-3 -37 0 -45 27 -20 64 -18 62 -29 42 -20 -34 -36 -18 -49 47 -13 71 -9 86 22
86 24 0 47 26 48 53 0 24 -78 177 -90 177 -6 0 -10 -4 -10 -8 0 -5 -16 -27
-35 -49 -19 -23 -35 -48 -35 -57 0 -20 -10 -20 -35 -2 -15 11 -17 17 -7 28 10
12 8 19 -8 33 -26 23 -25 35 1 35 13 0 18 4 13 12 -4 6 1 17 11 25 18 12 18
14 -3 33 -12 12 -22 27 -22 34 0 9 -19 17 -47 23 -32 5 -48 13 -48 23 0 8 -8
25 -17 38 -8 13 -14 31 -11 41 3 13 -25 48 -94 118 -54 55 -118 127 -142 161
-25 33 -48 59 -52 57 -9 -6 -16 -44 -38 -223 -20 -153 -46 -238 -88 -284 -15
-17 -15 -18 0 -18 18 0 23 -25 7 -35 -19 -12 -9 -24 43 -52 57 -31 68 -56 25
-61 -27 -3 -117 51 -212 127 -22 17 -41 29 -43 27 -8 -8 35 -81 55 -93 13 -8
19 -19 16 -30 -4 -13 11 -35 47 -70 63 -62 62 -84 -2 -50 -24 13 -55 30 -66
38 -12 7 -24 11 -26 9 -3 -3 0 -32 6 -66 9 -55 13 -62 49 -83 39 -22 50 -41
23 -41 -21 0 -19 -10 10 -52 25 -37 31 -58 18 -58 -5 0 -49 22 -98 48 -88 47
-130 57 -104 26 9 -11 8 -15 -5 -20 -9 -3 -16 -12 -16 -20 0 -8 -4 -14 -10
-14 -11 0 -35 -36 -45 -67 -6 -22 -4 -23 44 -23 27 0 52 -3 54 -7 2 -5 -3 -30
-11 -57 l-14 -48 -41 8 c-23 4 -87 9 -142 10 l-100 2 -3 118 c-3 120 3 141 36
129 22 -8 4 94 -23 137 -14 20 -27 48 -31 63 -3 14 -17 33 -30 42 -22 14 -26
14 -43 -1 -48 -44 -40 1 9 49 22 21 40 43 40 48 0 4 -15 14 -34 22 -48 20 -52
32 -15 50 17 9 28 19 25 22 -3 3 2 19 10 34 l15 29 -58 -2 c-50 -3 -58 -1 -61
17 -9 49 -23 95 -30 95 -4 0 -15 -14 -25 -32 -10 -18 -21 -27 -26 -22 -11 11
-41 144 -41 178 0 24 4 26 40 26 22 0 40 5 40 10 0 6 10 24 21 39 25 35 26 34
-55 190 l-59 114 -18 -34 c-9 -19 -35 -55 -57 -80 -30 -33 -39 -52 -35 -67 7
-30 -18 -29 -54 3 l-28 24 30 1 29 0 -37 38 c-49 50 -49 66 0 57 37 -7 38 -7
19 13 -19 22 -15 42 10 42 23 0 16 28 -11 46 -15 10 -25 26 -25 39 0 21 -7 25
-57 35 -81 16 -93 20 -93 31 0 5 7 12 16 16 12 5 10 12 -16 38 -27 27 -29 35
-21 58 9 24 2 34 -122 159 -117 117 -247 272 -259 309 -17 52 -47 -77 -73
-320 -18 -166 -50 -277 -100 -351 -19 -29 -35 -54 -35 -56 0 -2 9 -4 19 -4 31
0 33 -16 5 -49 l-26 -31 28 -10 c16 -6 55 -27 88 -47 54 -33 57 -37 41 -50
-35 -25 -71 -15 -165 48 -50 34 -122 85 -158 115 -71 57 -86 64 -74 37 26 -63
64 -121 81 -126 25 -6 39 -36 22 -46 -8 -5 -6 -13 8 -25 10 -10 22 -28 25 -42
4 -13 12 -24 19 -24 18 0 90 -76 85 -90 -3 -11 -56 13 -162 75 l-48 28 7 -34
c5 -19 11 -62 14 -97 l6 -62 54 -33 c56 -34 66 -50 31 -55 -11 -2 -20 -6 -20
-8 0 -3 18 -32 40 -64 41 -60 48 -80 30 -80 -14 0 -132 60 -205 104 -39 23
-63 32 -69 26 -6 -6 -19 -10 -30 -10 -15 -1 -12 -5 14 -17 l35 -16 -28 -10
c-19 -8 -25 -16 -22 -28 4 -12 -2 -19 -20 -23 -24 -6 -47 -44 -61 -103 -6 -22
-4 -23 65 -23 81 0 79 2 52 -85 -18 -58 -20 -60 -52 -59 -19 1 -63 10 -99 19
-64 17 -190 17 -233 0 -16 -7 -17 -9 -2 -25 9 -10 15 -24 13 -31 -2 -9 8 -15
27 -17 56 -5 62 -11 35 -32 -43 -34 -64 -26 -125 48 -31 37 -63 80 -72 96 -27
51 -92 253 -102 317 -7 40 -21 79 -40 108 -43 65 -69 119 -81 169 -6 23 -14
41 -18 38 -14 -9 -41 -75 -77 -190 -34 -110 -41 -124 -90 -175 -42 -44 -56
-68 -68 -113 -10 -39 -36 -88 -81 -152 -71 -101 -117 -144 -193 -178 -51 -23
-50 -24 42 -36 l60 -7 -77 -53 c-43 -29 -78 -57 -78 -62 0 -6 15 -10 33 -10
27 0 40 -8 70 -44 20 -25 37 -49 37 -55 0 -12 -73 -72 -115 -94 -69 -37 -205
-92 -265 -107 -70 -19 -70 -18 8 -45 24 -9 11 -23 -40 -44 l-53 -21 40 4 c22
3 58 8 79 12 42 8 43 5 20 -50 -7 -18 -4 -19 34 -12 39 6 43 4 54 -20 8 -18 9
-31 2 -42 -6 -9 -75 -49 -155 -90 l-144 -74 -75 7 c-78 7 -335 76 -353 94 -22
22 -37 11 -37 -23 0 -19 -4 -38 -10 -41 -8 -5 -110 32 -110 40 0 10 33 65 45
75 8 7 15 21 15 32 0 16 5 19 25 16 23 -5 25 -2 25 32 0 47 6 52 41 35 40 -21
49 -19 49 13 0 54 11 74 36 68 20 -5 25 -1 34 34 11 40 11 40 60 40 l50 0 0
37 c0 21 -11 55 -26 81 -22 37 -25 51 -19 88 6 39 10 45 36 51 58 11 95 97 47
108 -13 2 -56 9 -95 14 -76 10 -288 80 -410 136 -65 30 -73 37 -73 62 0 35
-16 96 -37 146 -21 48 -11 57 62 57 59 0 95 21 95 55 0 17 9 29 30 40 17 9 30
21 30 29 0 35 -80 90 -169 117 -48 14 -66 30 -190 167 -48 54 -80 97 -75 102
5 5 41 5 84 -1 103 -14 154 2 158 48 3 27 10 36 45 51 23 10 48 26 56 36 20
24 18 66 -4 100 -34 51 -55 128 -49 173 12 82 0 108 -95 207 -48 50 -118 137
-155 193 -37 56 -85 118 -108 138 -34 32 -45 36 -81 33 -39 -3 -43 0 -79 47
-51 66 -147 264 -192 393 -48 139 -52 145 -66 107z m2824 -2455 c4 -4 -4 -16
-18 -25 -30 -20 -26 -35 9 -35 43 0 55 -10 55 -46 0 -19 2 -34 5 -34 3 0 58 9
121 21 64 11 119 18 122 14 11 -11 -14 -40 -63 -70 -53 -33 -52 -33 -252 -20
-63 4 -116 13 -121 19 -13 17 -55 173 -49 183 6 10 179 4 191 -7z m-256 -269
c88 -27 115 -50 141 -120 14 -39 29 -62 41 -66 11 -4 20 -11 20 -16 0 -6 -7
-6 -19 1 -11 5 -29 10 -41 10 -23 0 -96 34 -122 58 -10 8 -18 24 -18 35 0 11
-18 37 -40 58 -38 37 -50 59 -31 59 5 0 36 -8 69 -19z m2250 -48 c2 -8 -5 -13
-17 -13 -21 0 -35 13 -24 24 10 10 36 3 41 -11z m-2236 -343 c49 0 59 -22 27
-56 -19 -21 -31 -24 -69 -22 -38 3 -47 7 -58 31 -20 41 -9 61 29 53 18 -3 49
-6 71 -6z m-3182 -948 c0 -5 -13 -28 -30 -50 -16 -23 -30 -45 -30 -48 0 -4 32
-3 70 0 64 7 70 6 70 -11 0 -11 -5 -24 -12 -31 -22 -22 1 -24 35 -3 19 11 37
18 40 14 4 -3 7 -28 7 -54 0 -53 1 -54 83 -64 32 -4 57 -12 57 -18 0 -20 -106
-108 -169 -139 -62 -31 -71 -33 -220 -39 -155 -6 -156 -6 -193 19 -46 30 -48
46 -8 67 35 18 38 31 8 38 -18 5 -19 8 -8 21 7 9 36 29 65 46 39 22 54 37 58
58 3 15 3 29 1 31 -10 10 -75 -31 -130 -82 -55 -50 -128 -87 -174 -87 -9 0
-43 11 -76 24 -45 18 -63 31 -76 57 -26 49 -23 69 8 69 25 0 26 2 21 35 -6 39
-3 41 33 20 16 -9 55 -14 111 -15 76 0 87 2 92 19 2 10 17 21 33 25 16 4 60
27 98 52 38 24 74 44 79 44 5 0 11 -9 14 -20 7 -26 19 -25 68 5 40 25 75 32
75 17z m-422 -53 c-2 -6 -8 -10 -13 -10 -5 0 -11 4 -13 10 -2 6 4 11 13 11 9
0 15 -5 13 -11z"/>
</g>
</svg>
